<svg xmlns="http://www.w3.org/2000/svg" viewBox="0 0 800 400"><path d="M182.9 141.6c0 26.2-17.3 46.7-44.7 46.7-27.4 0-44.7-20.5-44.7-46.7 0-26.2 17.3-46.8 44.7-46.8 27.4 0 44.7 20.6 44.7 46.8zm-16.8 0c0-17.7-10.4-30.9-27.9-30.9-17.4 0-27.9 13.2-27.9 30.9s10.4 30.8 27.9 30.8 27.9-13.1 27.9-30.8zM284.4 186h-15.5v-62.7L246 186h-14.9l-22.9-62.7V186h-15.1V96.9h21l24.7 68.1 24.7-68.1h21V186zm92.6-47.7V186h-15.4v-10.2c-3.3 5.7-11.4 12.5-26.1 12.5-24.9 0-41-19.8-41-46.1 0-24.4 13.9-47.3 43.6-47.3 21 0 36.5 11.3 38.8 31.7H360c-1-10.1-10.6-16.2-22.4-16.2-18.1 0-26.6 14.1-26.6 31.3 0 18.3 9.7 31 27 31 12.1 0 21.5-6.1 23-19.1h-25.6v-15.4H377zM170.9 302.9h-17.7L113.6 240v62.8H97.3v-89.1h19.1l38.2 61.2v-61.2h16.3v89.2zm11.4 0v-89.1h59.8v15.5h-43.3V250h39.8v15.5h-39.8v21.8h45.7v15.5h-62.2zm141.2-73.5h-29.3v73.5h-16.4v-73.5H249v-15.5h74.6v15.5zm101.3 73.5h-16.3l-19.6-65-19.6 65h-16.4l-24.3-89.1h17.6l15.6 63.5 19.2-63.5h16.3l19.2 63.6 15.6-63.6H449l-24.2 89.1zm117.4-44.4c0 26.2-17.3 46.7-44.7 46.7-27.4 0-44.7-20.5-44.7-46.7 0-26.2 17.3-46.8 44.7-46.8 27.4 0 44.7 20.6 44.7 46.8zm-16.7 0c0-17.7-10.4-30.9-27.9-30.9-17.4 0-27.9 13.2-27.9 30.9s10.4 30.8 27.9 30.8c17.4 0 27.9-13.1 27.9-30.8zm99.6 44.4h-19l-22.3-35.5h-15v35.5h-16.4v-89.1H589c20.2 0 29.5 13 29.5 26 0 10.4-6 21-17.7 24.7l24.3 38.4zm-36.5-50.6c9.2 0 13.5-5.9 13.5-12.1 0-5.2-3.1-10.8-12.2-10.8h-21v22.9h19.7zm68.7 11L648 273v29.9h-16.5v-89.1H648v38.8l34.9-38.8H705l-35.5 36.8 36.9 52.3H685l-27.7-39.6z" fill="#4967ff"/></svg>