<svg xmlns="http://www.w3.org/2000/svg" viewBox="0 0 234.3 234.3"><circle cx="117.1" cy="117.1" r="112.5" fill="#101010"/><path d="M87.9 117.2c0 14.6-9.6 26-24.9 26-15.2 0-24.9-11.4-24.9-26S47.7 91.1 63 91.1s24.9 11.5 24.9 26.1zm-9.3 0c0-9.9-5.8-17.2-15.5-17.2s-15.5 7.4-15.5 17.2c0 9.9 5.8 17.2 15.5 17.2 9.7-.1 15.5-7.4 15.5-17.2zm65.9 24.7h-8.7v-35l-12.8 35h-8.3L102 107v35h-8.4V92.3h11.7l13.8 37.9 13.8-37.9h11.7l-.1 49.6zm51.7-26.6v26.6h-8.6v-5.7c-1.8 3.2-6.4 6.9-14.5 6.9-13.9 0-22.8-11.1-22.8-25.7 0-13.6 7.7-26.4 24.3-26.4 11.7 0 20.4 6.3 21.6 17.7h-9.4c-.6-5.6-5.9-9-12.5-9-10.1 0-14.8 7.9-14.8 17.4 0 10.2 5.4 17.3 15 17.3 6.7 0 12-3.4 12.8-10.6H173v-8.6l23.2.1z" fill="#fff"/></svg>