<svg width="24" height="24" viewBox="0 0 24 24" xmlns="http://www.w3.org/2000/svg"><path d="M12 24C5.373 24 0 18.627 0 12S5.373 0 12 0s12 5.373 12 12-5.373 12-12 12zm2.116-8.538c.634 0 .902-.859.902-1.386 0-.527-.268-1.385-.902-1.385s-.902.858-.902 1.385.268 1.386.902 1.386zm-4.51 0c.636 0 .904-.859.904-1.386 0-.527-.268-1.385-.903-1.385-.634 0-.901.858-.901 1.385s.267 1.386.9 1.386zm4.736-3.465c1.148 0 1.804.974 1.804 2.079 0 2.208-1.973 2.548-3.693 2.548h-1.182c-1.72 0-3.693-.34-3.693-2.548 0-1.105.657-2.079 1.804-2.079.465 0 .916.087 1.374.152.367.058.733.08 1.107.08.373 0 .739-.022 1.105-.08.464-.065.91-.152 1.374-.152zm2.951 3.197c.353-.736.43-1.587.43-2.388 0-1.054-.283-2.057-.958-2.873.127-.39.19-.8.19-1.212a3.59 3.59 0 00-.36-1.574c-1.098 0-1.81.483-2.648 1.155a8.154 8.154 0 00-1.972-.232c-.733 0-1.466.08-2.177.254-.845-.68-1.557-1.178-2.669-1.178a3.588 3.588 0 00-.36 1.574c0 .412.063.83.19 1.228-.676.808-.958 1.804-.958 2.858 0 .801.077 1.66.437 2.388.965 1.95 3.677 2.116 5.537 2.116 1.832 0 4.39-.188 5.318-2.116z" fill="#858B9A"/></svg>