<svg width="24" height="24" viewBox="0 0 24 24" xmlns="http://www.w3.org/2000/svg"><path d="M12 24C5.373 24 0 18.627 0 12S5.373 0 12 0s12 5.373 12 12-5.373 12-12 12zM9.12 8.73H6.915v6.768H9.12V8.73zM8.018 5.5h-.015c-.74 0-1.218.52-1.218 1.17 0 .663.493 1.169 1.247 1.169.754 0 1.219-.506 1.233-1.17 0-.65-.479-1.169-1.247-1.169zm2.322 10.027h2.205v-3.78c0-.202.014-.404.072-.549.16-.404.523-.822 1.132-.822.798 0 1.117.62 1.117 1.53v3.621h2.204v-3.88c0-2.08-1.087-3.047-2.538-3.047-1.19 0-1.712.678-2.002 1.14h.015v-.98H10.34c.029.635 0 6.768 0 6.768z" fill="#858B9A"/></svg>