<svg width="60" height="60" viewBox="0 0 60 60" xmlns="http://www.w3.org/2000/svg"><path d="M35.12 19.804a2.8 2.8 0 10-.4-1.446l-4.881 1.266-.443 4.985c-3.272.101-6.244 1.018-8.517 2.47a3.201 3.201 0 10-3.68 3.872A7.114 7.114 0 0016.4 34.2c0 5.302 6.09 9.6 13.6 9.6s13.6-4.298 13.6-9.6c0-1.14-.282-2.234-.799-3.25a3.2 3.2 0 10-3.68-3.87c-2.204-1.409-5.066-2.314-8.22-2.46l.338-3.81 3.881-1.006zM30 60C13.431 60 0 46.569 0 30 0 13.431 13.431 0 30 0c16.569 0 30 13.431 30 30 0 16.569-13.431 30-30 30zm-.003-19.467v-.002c-1.8-.001-3.573-.43-5.175-1.251a6.344 6.344 0 01-.45-.256c-.598-.405-.694-1.189-.2-1.7.45-.466 1.24-.537 1.79-.164 1.692 1.178 4.796 1.766 8.172-.064.581-.325 1.357-.189 1.76.315.458.554.264 1.322-.374 1.677-1.818.992-3.678 1.445-5.523 1.445zM24.56 34.04a2.72 2.72 0 110-5.44 2.72 2.72 0 010 5.44zm10.88 0a2.72 2.72 0 110-5.44 2.72 2.72 0 010 5.44z" fill="#858B9A" fill-rule="evenodd"/></svg>