<svg width="24" height="24" viewBox="0 0 24 24" xmlns="http://www.w3.org/2000/svg"><path d="M12 24C5.373 24 0 18.627 0 12S5.373 0 12 0s12 5.373 12 12-5.373 12-12 12zm5.794-14.747a.936.936 0 00-.047-.189 1.145 1.145 0 00-1.088-.755h.079S14.705 8.012 12 8c-2.705.012-4.738.309-4.738.309h.08a1.147 1.147 0 00-1.107.815 1.042 1.042 0 00-.028.13A20.772 20.772 0 006 12a20.98 20.98 0 00.207 2.746 1.017 1.017 0 00.046.19c.154.438.582.755 1.088.755h-.079S9.295 15.988 12 16c2.705-.012 4.738-.309 4.738-.309h-.079a1.145 1.145 0 001.106-.815.915.915 0 00.029-.13c.073-.51.195-1.526.206-2.746a21.1 21.1 0 00-.206-2.747zm-4.017 2.995l-2.422 1.701a.3.3 0 01-.304.023.281.281 0 01-.159-.251V10.32c0-.107.061-.203.159-.252a.3.3 0 01.304.023l2.422 1.7a.277.277 0 010 .457z" fill="#858B9A"/></svg>