<svg xmlns="http://www.w3.org/2000/svg" width="173.892" height="60" viewBox="0 0 173.892 60"><path data-name="OMG Network" d="M104.643 56.169a13.747 13.747 0 01-3.422-9.4 13.809 13.809 0 013.422-9.423 13 13 0 0118.475 0 13.814 13.814 0 013.421 9.423 13.755 13.755 0 01-3.421 9.4 13.052 13.052 0 01-18.475 0zm1.338-9.4c0 5.219 3.174 8.726 7.9 8.726s7.9-3.506 7.9-8.726c0-5.243-3.174-8.765-7.9-8.765s-7.9 3.518-7.9 8.762zm28.507 12.59h-4.65V34.101h10.388c5.781 0 8.367 3.7 8.367 7.358a7.164 7.164 0 01-5.015 7l6.85 10.888h-5.369l-6.314-10.062h-4.255v10.071zm0-14.359h5.592c2.641 0 3.823-1.721 3.823-3.426 0-.719-.249-3.065-3.463-3.065h-5.952zm33.343 14.355l-7.863-11.217-2.633 2.741v8.476h-4.69V34.101h4.69v11l9.882-11h6.276l-10.061 10.428 10.46 14.824zm-78.529 0l-5.553-18.434-5.555 18.431h-4.652l-6.889-25.251h4.978l4.436 18 5.446-18h4.617l5.447 18.033 4.434-18.033h4.8l-6.89 25.251zm-36.578 0V38.501h-8.185v-4.4h21.135v4.4h-8.3v20.851zm-27.343 0V34.101h16.952v4.4H30.071v5.88h11.29v4.4h-11.29v6.17h12.948v4.4zm-8.285 0L5.88 41.535v17.817H1.263V34.101h5.412l10.818 17.353V34.101h4.617v25.251zm40.715-45.9c0-6.925 3.93-13.417 12.37-13.417 5.951 0 10.351 3.209 11 8.982h-4.8c-.289-2.85-2.993-4.582-6.348-4.582-5.121 0-7.537 4-7.537 8.873 0 5.194 2.741 8.8 7.646 8.8 3.427 0 6.1-1.73 6.529-5.41h-7.247v-4.365h11.759v13.526h-4.364v-2.886c-.937 1.623-3.245 3.534-7.394 3.534-7.069.001-11.612-5.626-11.612-13.056zM3.424 22.678a13.748 13.748 0 01-3.423-9.403 13.807 13.807 0 013.423-9.423A12.166 12.166 0 0112.662.001a12.164 12.164 0 019.239 3.851 13.812 13.812 0 013.42 9.423 13.754 13.754 0 01-3.42 9.4 12.19 12.19 0 01-9.237 3.831 12.19 12.19 0 01-9.24-3.828zm1.337-9.4c0 5.219 3.175 8.726 7.9 8.726s7.9-3.506 7.9-8.726c0-5.243-3.173-8.765-7.9-8.765s-7.9 3.519-7.9 8.762zm45.353 12.584V8.079l-6.493 17.783h-4.22L32.91 8.079v17.783h-4.292V.615h5.951l7 19.3 7-19.3h5.953v25.247z" fill="#fff"/></svg>