<svg width="110" height="40" viewBox="0 0 110 40" xmlns="http://www.w3.org/2000/svg"><g fill="none"><path d="M7.71 22.375c-4.358 0-7.69-2.765-7.69-7.729 0-4.963 3.486-7.828 7.876-7.828 4.39 0 7.658 2.828 7.658 7.729 0 4.9-3.518 7.828-7.845 7.828zM7.772 10.5c-1.993 0-2.988 1.602-2.988 4.116 0 2.514 1.026 4.052 3.019 4.052s2.988-1.565 2.988-4.083c0-2.485-1.028-4.084-3.02-4.084V10.5zm27.704 2.796c0-1.76-.747-2.356-1.961-2.356-.965 0-1.743.44-2.334.942v10.022h-4.795v-8.608c0-1.76-.779-2.356-1.993-2.356a3.55 3.55 0 00-2.334.874v10.084h-4.795V7.117l4.795-.009v1.88c1.277-1.35 2.708-2.167 4.608-2.167 1.833 0 3.362.88 4.078 2.607 1.338-1.602 3.02-2.607 5.012-2.607 2.833 0 4.513 1.916 4.513 5.058v10.022h-4.795l.001-8.605zm9.618-8.076c-1.743 0-2.831-.91-2.831-2.575 0-1.728 1.088-2.608 2.831-2.608 1.774 0 2.834.88 2.834 2.608 0 1.665-1.06 2.576-2.834 2.576zm-2.397 1.901l4.795-.008v14.791h-4.795V7.121zm12.537 15.254c-1.993 0-4.607-.44-6.132-1.288l.934-3.487c1.712.88 3.58 1.382 5.291 1.382 1.307 0 1.962-.409 1.962-1.194 0-.854-.81-1.132-2.46-1.508-3.362-.691-5.51-1.915-5.51-4.775 0-2.733 2.365-4.681 6.382-4.681 1.93 0 4.45.569 5.883 1.256l-.964 3.45c-1.65-.855-3.612-1.32-4.981-1.32-1.183 0-1.774.377-1.774 1.1 0 .786.902 1.1 2.49 1.445 3.393.754 5.448 1.884 5.448 4.806-.001 2.65-2.304 4.814-6.569 4.814zm15.968-3.55c1.588 0 3.27-.569 4.732-1.413l.467 3.74c-1.463.753-3.518 1.193-5.641 1.193-4.887 0-8.094-2.733-8.094-7.635 0-4.775 3.244-7.885 7.844-7.885 4.11 0 6.346 2.482 6.346 6.12 0 .786-.093 1.948-.312 2.577l-9.183.156v.063c.17 1.984 1.476 3.084 3.841 3.084zm1.215-5.872c0-1.76-.717-2.797-2.21-2.797-1.65 0-2.646 1.444-2.802 3.11l5.012-.029v-.284z" fill="#2E374D"/><path d="M85.803 23.423c-4.258 0-7.71 3.484-7.71 7.781 0 4.298 3.452 7.782 7.71 7.782s7.71-3.484 7.71-7.782c0-4.297-3.452-7.781-7.71-7.781zm0 13.209c-2.97 0-5.377-2.43-5.377-5.428 0-2.997 2.407-5.427 5.377-5.427 2.97 0 5.377 2.43 5.377 5.427-.003 2.997-2.408 5.425-5.377 5.429v-.001zM102.27 6.824a7.709 7.709 0 00-7.123 4.803 7.834 7.834 0 001.672 8.48 7.658 7.658 0 008.402 1.687c2.88-1.204 4.76-4.042 4.76-7.189 0-4.298-3.453-7.781-7.71-7.781zm0 13.208c-2.97 0-5.377-2.43-5.377-5.427 0-2.997 2.408-5.427 5.377-5.427 2.97 0 5.378 2.43 5.378 5.427-.004 2.996-2.41 5.423-5.378 5.427zM85.803 6.824c-3.671-.002-6.835 2.608-7.564 6.24-.729 3.63 1.179 7.277 4.561 8.718a7.673 7.673 0 009.371-2.783 7.84 7.84 0 00-.846-9.823h2.188V6.824h-7.71zm5.379 7.781c-.001 2.997-2.41 5.426-5.379 5.426-2.97 0-5.376-2.43-5.376-5.428 0-2.997 2.408-5.427 5.377-5.427 2.969.004 5.374 2.433 5.378 5.43z" fill="#1A53F0"/></g></svg>