<svg width="60" height="60" viewBox="0 0 60 60" xmlns="http://www.w3.org/2000/svg"><path d="M30 60C13.431 60 0 46.569 0 30 0 13.431 13.431 0 30 0c16.569 0 30 13.431 30 30 0 16.569-13.431 30-30 30zm15.11-38.269c-1.043.45-2.175.773-3.343.899a5.788 5.788 0 002.552-3.199 11.426 11.426 0 01-3.684 1.402A5.79 5.79 0 0036.395 19a5.801 5.801 0 00-5.804 5.804c0 .45.054.898.143 1.33a16.497 16.497 0 01-11.967-6.074 5.76 5.76 0 00-.79 2.929 5.8 5.8 0 002.587 4.834 5.846 5.846 0 01-2.623-.737v.072a5.805 5.805 0 004.654 5.696 6.136 6.136 0 01-1.528.198 7.3 7.3 0 01-1.096-.09 5.814 5.814 0 005.427 4.025 11.623 11.623 0 01-7.206 2.48 12 12 0 01-1.401-.072A16.4 16.4 0 0025.703 42c10.674 0 16.513-8.84 16.513-16.513 0-.252 0-.503-.018-.755a12.477 12.477 0 002.911-3z" fill="#858B9A" fill-rule="evenodd"/></svg>